<svg width="30" height="25" viewBox="0 0 30 25" fill="none" xmlns="http://www.w3.org/2000/svg">
<path d="M5.60478 24.5694C5.22815 24.5694 4.91266 24.4418 4.65832 24.1866C4.40398 23.9314 4.27637 23.6159 4.27549 23.2401V21.9108C3.16774 21.9108 2.22615 21.5231 1.45073 20.7477C0.675309 19.9723 0.287598 19.0307 0.287598 17.9229V11.2765C0.287598 10.5453 0.54814 9.91969 1.06922 9.39949C1.59031 8.87929 2.21596 8.61875 2.94619 8.61787C3.6773 8.61787 4.3034 8.87841 4.82448 9.39949C5.34557 9.92058 5.60567 10.5462 5.60478 11.2765V16.5936H24.2149V11.2765C24.2149 10.5453 24.4755 9.91969 24.9966 9.39949C25.5176 8.87929 26.1433 8.61875 26.8735 8.61787C27.6046 8.61787 28.2307 8.87841 28.7518 9.39949C29.2729 9.92058 29.533 10.5462 29.5321 11.2765V17.9229C29.5321 19.0307 29.1444 19.9723 28.369 20.7477C27.5936 21.5231 26.652 21.9108 25.5442 21.9108V23.2401C25.5442 23.6168 25.4166 23.9327 25.1614 24.1879C24.9062 24.4431 24.5907 24.5703 24.2149 24.5694C23.8383 24.5694 23.5228 24.4418 23.2685 24.1866C23.0141 23.9314 22.8865 23.6159 22.8856 23.2401V21.9108H6.93408V23.2401C6.93408 23.6168 6.80646 23.9327 6.55124 24.1879C6.29601 24.4431 5.98053 24.5703 5.60478 24.5694ZM8.26337 13.935V11.2765C8.26337 10.0579 7.8925 8.96658 7.15075 8.0024C6.40901 7.03822 5.45058 6.35718 4.27549 5.95927V4.62998C4.27549 3.52223 4.6632 2.58065 5.43862 1.80522C6.21404 1.0298 7.15563 0.64209 8.26337 0.64209H21.5563C22.6641 0.64209 23.6057 1.0298 24.3811 1.80522C25.1565 2.58065 25.5442 3.52223 25.5442 4.62998V5.95927C24.3479 6.26944 23.3841 6.9177 22.653 7.90403C21.9219 8.89037 21.5563 10.0145 21.5563 11.2765V13.935H8.26337Z" fill="#FF6D18"/>
</svg>
