<svg width="30" height="30" viewBox="0 0 30 30" fill="none" xmlns="http://www.w3.org/2000/svg">
<circle cx="15" cy="15" r="14" fill="#FDB220" stroke="white" stroke-width="2"/>
<path d="M8.42211 10.2727V19H6.84115V11.8111H6.79001L4.74882 13.1151V11.6662L6.91785 10.2727H8.42211ZM10.59 19V17.858L13.6199 14.8878C13.9096 14.5952 14.1511 14.3352 14.3443 14.108C14.5375 13.8807 14.6824 13.6605 14.7789 13.4474C14.8755 13.2344 14.9238 13.0071 14.9238 12.7656C14.9238 12.4901 14.8613 12.2543 14.7363 12.0582C14.6113 11.8594 14.4395 11.706 14.2207 11.598C14.002 11.4901 13.7534 11.4361 13.475 11.4361C13.188 11.4361 12.9366 11.4957 12.7207 11.6151C12.5048 11.7315 12.3372 11.8977 12.2179 12.1136C12.1014 12.3295 12.0431 12.5866 12.0431 12.8849H10.5389C10.5389 12.331 10.6653 11.8494 10.9181 11.4403C11.171 11.0312 11.519 10.7145 11.9622 10.4901C12.4082 10.2656 12.9196 10.1534 13.4963 10.1534C14.0815 10.1534 14.5957 10.2628 15.0389 10.4815C15.4821 10.7003 15.8258 11 16.0701 11.3807C16.3173 11.7614 16.4409 12.196 16.4409 12.6847C16.4409 13.0114 16.3784 13.3324 16.2534 13.6477C16.1284 13.9631 15.9082 14.3125 15.5929 14.696C15.2804 15.0795 14.8414 15.544 14.2761 16.0895L12.7718 17.6193V17.679H16.573V19H10.59ZM19.2011 19H17.5136L20.5861 10.2727H22.5378L25.6145 19H23.927L21.596 12.0625H21.5278L19.2011 19ZM19.2565 15.5781H23.8588V16.848H19.2565V15.5781Z" fill="white"/>
</svg>
