<svg width="30" height="30" viewBox="0 0 30 30" fill="none" xmlns="http://www.w3.org/2000/svg">
<circle cx="15" cy="15" r="14" fill="#FD2020" stroke="white" stroke-width="2"/>
<path d="M8.3518 10.2727V19H6.77083V11.8111H6.7197L4.6785 13.1151V11.6662L6.84754 10.2727H8.3518ZM13.5538 19.1193C12.9856 19.1193 12.4771 19.0128 12.0282 18.7997C11.5794 18.5838 11.2228 18.2884 10.9586 17.9134C10.6973 17.5384 10.5581 17.1094 10.541 16.6264H12.0751C12.1035 16.9844 12.2583 17.277 12.5396 17.5043C12.8208 17.7287 13.1589 17.8409 13.5538 17.8409C13.8635 17.8409 14.139 17.7699 14.3805 17.6278C14.622 17.4858 14.8123 17.2884 14.9515 17.0355C15.0907 16.7827 15.1589 16.4943 15.1561 16.1705C15.1589 15.8409 15.0893 15.5483 14.9473 15.2926C14.8052 15.0369 14.6106 14.8366 14.3635 14.6918C14.1163 14.544 13.8322 14.4702 13.5112 14.4702C13.2498 14.4673 12.9927 14.5156 12.7399 14.6151C12.487 14.7145 12.2868 14.8452 12.139 15.0071L10.7115 14.7727L11.1674 10.2727H16.2299V11.5938H12.4757L12.2243 13.9077H12.2754C12.4373 13.7173 12.666 13.5597 12.9615 13.4347C13.2569 13.3068 13.5808 13.2429 13.9331 13.2429C14.4615 13.2429 14.9331 13.3679 15.3478 13.6179C15.7626 13.8651 16.0893 14.206 16.3279 14.6406C16.5666 15.0753 16.6859 15.5724 16.6859 16.1321C16.6859 16.7088 16.5524 17.223 16.2853 17.6747C16.0211 18.1236 15.6532 18.4773 15.1816 18.7358C14.7129 18.9915 14.1703 19.1193 13.5538 19.1193ZM19.2714 19H17.5839L20.6564 10.2727H22.6081L25.6848 19H23.9973L21.6663 12.0625H21.5981L19.2714 19ZM19.3268 15.5781H23.9291V16.848H19.3268V15.5781Z" fill="white"/>
</svg>
