<svg width="30" height="30" viewBox="0 0 30 30" fill="none" xmlns="http://www.w3.org/2000/svg">
<circle cx="15" cy="15" r="14" fill="#6C1AD7" stroke="white" stroke-width="2"/>
<path d="M12.5758 10.2727V19H10.9949V11.8111H10.9437L8.90255 13.1151V11.6662L11.0716 10.2727H12.5758ZM17.9398 19.1193C17.5222 19.1165 17.1145 19.044 16.7168 18.902C16.319 18.7571 15.9611 18.5227 15.6429 18.1989C15.3247 17.8722 15.0719 17.4389 14.8844 16.8991C14.6969 16.3565 14.6046 15.6847 14.6074 14.8835C14.6074 14.1364 14.6869 13.4702 14.846 12.8849C15.0051 12.2997 15.2338 11.8054 15.5321 11.402C15.8304 10.9957 16.1898 10.6861 16.6102 10.473C17.0335 10.2599 17.5065 10.1534 18.0293 10.1534C18.5776 10.1534 19.0634 10.2614 19.4867 10.4773C19.9128 10.6932 20.2565 10.9886 20.5179 11.3636C20.7793 11.7358 20.9412 12.1562 21.0037 12.625H19.4483C19.3688 12.2898 19.2054 12.0227 18.9582 11.8239C18.7139 11.6222 18.4043 11.5213 18.0293 11.5213C17.4242 11.5213 16.9582 11.7841 16.6315 12.3097C16.3077 12.8352 16.1443 13.5568 16.1415 14.4744H16.2011C16.3403 14.2244 16.5207 14.0099 16.7423 13.831C16.9639 13.652 17.2139 13.5142 17.4923 13.4176C17.7736 13.3182 18.0705 13.2685 18.383 13.2685C18.8943 13.2685 19.3531 13.3906 19.7594 13.6349C20.1685 13.8793 20.4923 14.2159 20.731 14.6449C20.9696 15.071 21.0875 15.5597 21.0847 16.1108C21.0875 16.6847 20.9568 17.2003 20.6926 17.6577C20.4284 18.1122 20.0605 18.4702 19.5889 18.7315C19.1173 18.9929 18.5676 19.1222 17.9398 19.1193ZM17.9313 17.8409C18.2409 17.8409 18.5179 17.7656 18.7622 17.6151C19.0065 17.4645 19.1997 17.2614 19.3418 17.0057C19.4838 16.75 19.5534 16.4631 19.5506 16.1449C19.5534 15.8324 19.4852 15.5497 19.346 15.2969C19.2097 15.044 19.0207 14.8437 18.7793 14.696C18.5378 14.5483 18.2622 14.4744 17.9526 14.4744C17.7224 14.4744 17.508 14.5185 17.3091 14.6065C17.1102 14.6946 16.9369 14.8168 16.7892 14.973C16.6415 15.1264 16.525 15.3054 16.4398 15.5099C16.3574 15.7116 16.3148 15.9276 16.3119 16.1577C16.3148 16.4616 16.3858 16.7415 16.525 16.9972C16.6642 17.2528 16.856 17.4574 17.1003 17.6108C17.3446 17.7642 17.6216 17.8409 17.9313 17.8409Z" fill="white"/>
</svg>
