<svg width="30" height="30" viewBox="0 0 30 30" fill="none" xmlns="http://www.w3.org/2000/svg">
<circle cx="15" cy="15" r="14" fill="#222122" stroke="white" stroke-width="2"/>
<path d="M12.5934 10.2727V19H11.0125V11.8111H10.9613L8.92013 13.1151V11.6662L11.0892 10.2727H12.5934ZM17.8636 19.1193C17.2301 19.1193 16.6676 19.0128 16.1761 18.7997C15.6875 18.5866 15.3039 18.2955 15.0255 17.9261C14.75 17.554 14.6136 17.1321 14.6164 16.6605C14.6136 16.294 14.6932 15.9574 14.8551 15.6506C15.017 15.3438 15.2358 15.0881 15.5113 14.8835C15.7897 14.6761 16.0994 14.544 16.4403 14.4872V14.4276C15.9914 14.3281 15.6278 14.0994 15.3494 13.7415C15.0738 13.3807 14.9375 12.9645 14.9403 12.4929C14.9375 12.044 15.0625 11.6435 15.3153 11.2912C15.5682 10.9389 15.9147 10.6619 16.3551 10.4602C16.7954 10.2557 17.2983 10.1534 17.8636 10.1534C18.4233 10.1534 18.9218 10.2557 19.3593 10.4602C19.7997 10.6619 20.1463 10.9389 20.3991 11.2912C20.6548 11.6435 20.7826 12.044 20.7826 12.4929C20.7826 12.9645 20.642 13.3807 20.3608 13.7415C20.0824 14.0994 19.723 14.3281 19.2826 14.4276V14.4872C19.6236 14.544 19.9304 14.6761 20.2031 14.8835C20.4787 15.0881 20.6974 15.3438 20.8593 15.6506C21.0241 15.9574 21.1065 16.294 21.1065 16.6605C21.1065 17.1321 20.9673 17.554 20.6889 17.9261C20.4105 18.2955 20.027 18.5866 19.5383 18.7997C19.0525 19.0128 18.4943 19.1193 17.8636 19.1193ZM17.8636 17.9006C18.1903 17.9006 18.4744 17.8452 18.7159 17.7344C18.9574 17.6207 19.1449 17.4616 19.2784 17.2571C19.4119 17.0526 19.4801 16.8168 19.4829 16.5497C19.4801 16.2713 19.4076 16.0256 19.2656 15.8125C19.1264 15.5966 18.9346 15.4276 18.6903 15.3054C18.4488 15.1832 18.1733 15.1222 17.8636 15.1222C17.5511 15.1222 17.2727 15.1832 17.0284 15.3054C16.7841 15.4276 16.5909 15.5966 16.4488 15.8125C16.3096 16.0256 16.2414 16.2713 16.2443 16.5497C16.2414 16.8168 16.3068 17.0526 16.4403 17.2571C16.5738 17.4588 16.7613 17.6165 17.0028 17.7301C17.2471 17.8437 17.5341 17.9006 17.8636 17.9006ZM17.8636 13.9247C18.1307 13.9247 18.3664 13.8707 18.571 13.7628C18.7784 13.6548 18.9417 13.5043 19.0611 13.3111C19.1804 13.1179 19.2414 12.8949 19.2443 12.642C19.2414 12.392 19.1818 12.1733 19.0653 11.9858C18.9488 11.7955 18.7869 11.6491 18.5795 11.5469C18.3721 11.4418 18.1335 11.3892 17.8636 11.3892C17.588 11.3892 17.3451 11.4418 17.1349 11.5469C16.9275 11.6491 16.7656 11.7955 16.6491 11.9858C16.5355 12.1733 16.4801 12.392 16.4829 12.642C16.4801 12.8949 16.5369 13.1179 16.6534 13.3111C16.7727 13.5014 16.9361 13.652 17.1434 13.7628C17.3537 13.8707 17.5937 13.9247 17.8636 13.9247Z" fill="white"/>
</svg>
