<svg width="20" height="20" viewBox="0 0 20 20" fill="none" xmlns="http://www.w3.org/2000/svg">
<path fill-rule="evenodd" clip-rule="evenodd" d="M12 6C12 8.20914 10.2091 10 8 10C5.79086 10 4 8.20914 4 6C4 3.79086 5.79086 2 8 2C10.2091 2 12 3.79086 12 6ZM8 11C4.13401 11 1 13.2386 1 16C1 17.1046 1.89543 18 3 18H13C14.1046 18 15 17.1046 15 16C15 13.2386 11.866 11 8 11ZM15.9998 4C16.5521 4 16.9998 4.44772 16.9998 5V6H17.9998C18.5521 6 18.9998 6.44772 18.9998 7C18.9998 7.55228 18.5521 8 17.9998 8H16.9998V9C16.9998 9.55228 16.5521 10 15.9998 10C15.4476 10 14.9998 9.55228 14.9998 9V8H13.9998C13.4476 8 12.9998 7.55228 12.9998 7C12.9998 6.44771 13.4476 6 13.9998 6H14.9998V5C14.9998 4.44772 15.4476 4 15.9998 4Z" fill="white"/>
</svg>
