<svg width="16" height="16" viewBox="0 0 16 16" fill="none" xmlns="http://www.w3.org/2000/svg">
<path d="M12.4798 2.125H10.5598C9.85284 2.125 9.27979 2.69808 9.27979 3.405V5.325C9.27979 6.03192 9.85284 6.60499 10.5598 6.60499H12.4798C13.1867 6.60499 13.7598 6.03192 13.7598 5.325V3.405C13.7598 2.69808 13.1867 2.125 12.4798 2.125Z" stroke="white" stroke-opacity="0.7" stroke-width="1.2" stroke-linecap="round" stroke-linejoin="round"/>
<path d="M5.44023 2.125H3.52023C2.81331 2.125 2.24023 2.69808 2.24023 3.405V5.325C2.24023 6.03192 2.81331 6.60499 3.52023 6.60499H5.44023C6.14716 6.60499 6.72023 6.03192 6.72023 5.325V3.405C6.72023 2.69808 6.14716 2.125 5.44023 2.125Z" stroke="white" stroke-opacity="0.7" stroke-width="1.2" stroke-linecap="round" stroke-linejoin="round"/>
<path d="M12.4798 9.16504H10.5598C9.85284 9.16504 9.27979 9.7381 9.27979 10.445V12.365C9.27979 13.072 9.85284 13.645 10.5598 13.645H12.4798C13.1867 13.645 13.7598 13.072 13.7598 12.365V10.445C13.7598 9.7381 13.1867 9.16504 12.4798 9.16504Z" stroke="white" stroke-opacity="0.7" stroke-width="1.2" stroke-linecap="round" stroke-linejoin="round"/>
<path d="M5.44023 9.16504H3.52023C2.81331 9.16504 2.24023 9.7381 2.24023 10.445V12.365C2.24023 13.072 2.81331 13.645 3.52023 13.645H5.44023C6.14716 13.645 6.72023 13.072 6.72023 12.365V10.445C6.72023 9.7381 6.14716 9.16504 5.44023 9.16504Z" stroke="white" stroke-opacity="0.7" stroke-width="1.2" stroke-linecap="round" stroke-linejoin="round"/>
</svg>
