<svg width="16" height="16" viewBox="0 0 16 16" fill="none" xmlns="http://www.w3.org/2000/svg">
<path d="M1.57479 8.38976C1.9706 6.41074 2.16851 5.42122 2.82243 4.7839C2.94329 4.66611 3.07405 4.55892 3.21325 4.4635C3.96644 3.94727 4.97556 3.94727 6.9938 3.94727H8.24857C10.2669 3.94727 11.276 3.94727 12.0292 4.4635C12.1683 4.55892 12.2991 4.66611 12.42 4.7839C13.0739 5.42122 13.2718 6.41074 13.6676 8.38976C14.2359 11.231 14.52 12.6517 13.8659 13.6583C13.7475 13.8406 13.6092 14.0092 13.4538 14.1611C12.5949 14.9999 11.1461 14.9999 8.24857 14.9999H6.9938C4.09625 14.9999 2.64749 14.9999 1.78865 14.1611C1.63314 14.0092 1.49491 13.8406 1.37648 13.6583C0.722415 12.6517 1.00654 11.231 1.57479 8.38976Z" stroke="white" stroke-opacity="0.7" stroke-width="1.2"/>
<path d="M5.41064 3.94737V3.21053C5.41064 1.98969 6.4003 1 7.62117 1C8.84205 1 9.8317 1.98969 9.8317 3.21053V3.94737" stroke="white" stroke-opacity="0.7" stroke-width="1.2" stroke-linecap="round"/>
<path d="M5.53662 10.5791C5.84007 11.4377 6.65891 12.0528 7.62137 12.0528C8.58383 12.0528 9.40269 11.4377 9.70612 10.5791" stroke="white" stroke-opacity="0.7" stroke-width="1.2" stroke-linecap="round"/>
</svg>
