<svg width="14" height="14" viewBox="0 0 14 14" fill="none" xmlns="http://www.w3.org/2000/svg">
<path d="M13.4488 12.3688C13.0202 11.9867 12.645 11.5487 12.3332 11.0666C11.9929 10.4011 11.7889 9.67425 11.7332 8.92882V6.73326C11.7362 5.56242 11.3115 4.43081 10.5389 3.55103C9.76634 2.67125 8.69909 2.10387 7.53769 1.95548V1.38215C7.53769 1.22479 7.47518 1.07387 7.36391 0.962602C7.25264 0.85133 7.10172 0.788818 6.94436 0.788818C6.787 0.788818 6.63608 0.85133 6.52481 0.962602C6.41354 1.07387 6.35103 1.22479 6.35103 1.38215V1.96437C5.20003 2.12345 4.14568 2.69427 3.38326 3.57109C2.62084 4.44791 2.20202 5.57133 2.20436 6.73326V8.92882C2.14869 9.67425 1.9447 10.4011 1.60436 11.0666C1.29808 11.5476 0.928889 11.9856 0.50658 12.3688C0.459172 12.4105 0.421176 12.4617 0.395121 12.5192C0.369066 12.5767 0.355549 12.639 0.355469 12.7022V13.3066C0.355469 13.4245 0.402294 13.5375 0.485644 13.6209C0.568993 13.7042 0.682039 13.751 0.799913 13.751H13.1555C13.2733 13.751 13.3864 13.7042 13.4697 13.6209C13.5531 13.5375 13.5999 13.4245 13.5999 13.3066V12.7022C13.5998 12.639 13.5863 12.5767 13.5603 12.5192C13.5342 12.4617 13.4962 12.4105 13.4488 12.3688ZM1.27991 12.8622C1.69343 12.4627 2.05751 12.015 2.36436 11.5288C2.79307 10.725 3.04322 9.83816 3.09769 8.92882V6.73326C3.08006 6.21239 3.16744 5.6933 3.3546 5.20689C3.54176 4.72049 3.8249 4.27672 4.18713 3.90202C4.54937 3.52732 4.98331 3.22934 5.46311 3.02583C5.9429 2.82232 6.45874 2.71744 6.97991 2.71744C7.50108 2.71744 8.01693 2.82232 8.49672 3.02583C8.97652 3.22934 9.41045 3.52732 9.77269 3.90202C10.1349 4.27672 10.4181 4.72049 10.6052 5.20689C10.7924 5.6933 10.8798 6.21239 10.8621 6.73326V8.92882C10.9166 9.83816 11.1668 10.725 11.5955 11.5288C11.9023 12.015 12.2664 12.4627 12.6799 12.8622H1.27991Z" fill="#FFA412"/>
</svg>
