<svg width="14" height="12" viewBox="0 0 14 12" fill="none" xmlns="http://www.w3.org/2000/svg">
<path d="M4.66683 5L4.26683 4.46667C4.17599 4.53487 4.10409 4.62516 4.05794 4.72895C4.01179 4.83275 3.99293 4.94662 4.00315 5.05975C4.01337 5.17289 4.05232 5.28153 4.11632 5.37538C4.18032 5.46923 4.26724 5.54517 4.36883 5.596L4.66683 5ZM7.3335 6.33333L7.9935 6.42733C8.01314 6.28889 7.98876 6.14777 7.9238 6.02394C7.85883 5.90011 7.75658 5.79985 7.6315 5.73733L7.3335 6.33333ZM6.34016 8.57267C6.3274 8.65953 6.33193 8.74805 6.35348 8.83316C6.37502 8.91827 6.41317 8.99828 6.46572 9.06861C6.51827 9.13893 6.5842 9.19819 6.65971 9.24297C6.73522 9.28775 6.81884 9.31717 6.90575 9.32955C6.99267 9.34193 7.08117 9.33702 7.16618 9.3151C7.2512 9.29318 7.33104 9.25469 7.40114 9.20183C7.47124 9.14897 7.5302 9.08279 7.57465 9.00708C7.6191 8.93138 7.64816 8.84763 7.66016 8.76067L6.34016 8.57267ZM7.3335 3L7.80483 2.52867C7.69137 2.4152 7.54079 2.34646 7.38073 2.33508C7.22067 2.32369 7.06188 2.37041 6.9335 2.46667L7.3335 3ZM9.00016 4.66667L8.52883 5.138C8.65382 5.26303 8.82337 5.33329 9.00016 5.33333V4.66667ZM10.3335 5.33333C10.5103 5.33333 10.6799 5.26309 10.8049 5.13807C10.9299 5.01305 11.0002 4.84348 11.0002 4.66667C11.0002 4.48985 10.9299 4.32029 10.8049 4.19526C10.6799 4.07024 10.5103 4 10.3335 4V5.33333ZM4.3335 8.66667C4.3335 9.02029 4.19302 9.35943 3.94297 9.60947C3.69292 9.85952 3.35378 10 3.00016 10V11.3333C3.70741 11.3333 4.38568 11.0524 4.88578 10.5523C5.38588 10.0522 5.66683 9.37391 5.66683 8.66667H4.3335ZM3.00016 10C2.64654 10 2.3074 9.85952 2.05735 9.60947C1.80731 9.35943 1.66683 9.02029 1.66683 8.66667H0.333496C0.333496 9.37391 0.614448 10.0522 1.11454 10.5523C1.61464 11.0524 2.29292 11.3333 3.00016 11.3333V10ZM1.66683 8.66667C1.66683 8.31304 1.80731 7.97391 2.05735 7.72386C2.3074 7.47381 2.64654 7.33333 3.00016 7.33333V6C2.29292 6 1.61464 6.28095 1.11454 6.78105C0.614448 7.28114 0.333496 7.95942 0.333496 8.66667H1.66683ZM3.00016 7.33333C3.35378 7.33333 3.69292 7.47381 3.94297 7.72386C4.19302 7.97391 4.3335 8.31304 4.3335 8.66667H5.66683C5.66683 7.95942 5.38588 7.28114 4.88578 6.78105C4.38568 6.28095 3.70741 6 3.00016 6V7.33333ZM4.36883 5.596L7.0355 6.92933L7.6315 5.73733L4.96483 4.404L4.36883 5.596ZM6.6735 6.23933L6.34016 8.57267L7.66016 8.76067L7.9935 6.42733L6.6735 6.23933ZM5.06683 5.53333L7.7335 3.53333L6.9335 2.46667L4.26683 4.46667L5.06683 5.53333ZM6.86216 3.47133L8.52883 5.138L9.4715 4.19533L7.80483 2.52867L6.86216 3.47133ZM9.00016 5.33333H10.3335V4H9.00016V5.33333ZM12.3335 8.66667C12.3335 9.02029 12.193 9.35943 11.943 9.60947C11.6929 9.85952 11.3538 10 11.0002 10V11.3333C11.7074 11.3333 12.3857 11.0524 12.8858 10.5523C13.3859 10.0522 13.6668 9.37391 13.6668 8.66667H12.3335ZM11.0002 10C10.6465 10 10.3074 9.85952 10.0574 9.60947C9.80731 9.35943 9.66683 9.02029 9.66683 8.66667H8.3335C8.3335 9.37391 8.61445 10.0522 9.11454 10.5523C9.61464 11.0524 10.2929 11.3333 11.0002 11.3333V10ZM9.66683 8.66667C9.66683 8.31304 9.80731 7.97391 10.0574 7.72386C10.3074 7.47381 10.6465 7.33333 11.0002 7.33333V6C10.2929 6 9.61464 6.28095 9.11454 6.78105C8.61445 7.28114 8.3335 7.95942 8.3335 8.66667H9.66683ZM11.0002 7.33333C11.3538 7.33333 11.6929 7.47381 11.943 7.72386C12.193 7.97391 12.3335 8.31304 12.3335 8.66667H13.6668C13.6668 7.95942 13.3859 7.28114 12.8858 6.78105C12.3857 6.28095 11.7074 6 11.0002 6V7.33333ZM9.00016 1.33333V2.66667C9.35378 2.66667 9.69292 2.52619 9.94297 2.27614C10.193 2.02609 10.3335 1.68696 10.3335 1.33333H9.00016ZM9.00016 1.33333H7.66683C7.66683 1.68696 7.8073 2.02609 8.05735 2.27614C8.3074 2.52619 8.64654 2.66667 9.00016 2.66667V1.33333ZM9.00016 1.33333V0C8.64654 0 8.3074 0.140476 8.05735 0.390524C7.8073 0.640573 7.66683 0.979711 7.66683 1.33333H9.00016ZM9.00016 1.33333H10.3335C10.3335 0.979711 10.193 0.640573 9.94297 0.390524C9.69292 0.140476 9.35378 0 9.00016 0V1.33333Z" fill="white" fill-opacity="0.7"/>
</svg>
