<svg width="16" height="16" viewBox="0 0 16 16" fill="none" xmlns="http://www.w3.org/2000/svg">
<path d="M1 7.6C1 4.96013 1 3.6402 1.8201 2.8201C2.6402 2 3.96013 2 6.6 2H9.4C12.0398 2 13.3598 2 14.1799 2.8201C15 3.6402 15 4.96013 15 7.6C15 10.2398 15 11.5598 14.1799 12.3799C13.3598 13.2 12.0398 13.2 9.4 13.2H6.6C3.96013 13.2 2.6402 13.2 1.8201 12.3799C1 11.5598 1 10.2398 1 7.6Z" stroke="white" stroke-opacity="0.7" stroke-width="1.2"/>
<path opacity="0.5" d="M6.60029 10.3999H3.80029" stroke="white" stroke-opacity="0.7" stroke-width="1.2" stroke-linecap="round"/>
<path opacity="0.5" d="M9.4001 10.3999H8.3501" stroke="white" stroke-opacity="0.7" stroke-width="1.2" stroke-linecap="round"/>
<path opacity="0.5" d="M1 6.2002H15" stroke="white" stroke-opacity="0.7" stroke-width="1.2" stroke-linecap="round"/>
</svg>
