<svg width="30" height="30" viewBox="0 0 30 30" fill="none" xmlns="http://www.w3.org/2000/svg">
<circle cx="15" cy="15" r="14" fill="#58A942" stroke="white" stroke-width="2"/>
<path d="M17.1781 13.0597C17.1071 12.8295 17.0091 12.6236 16.8841 12.4418C16.7619 12.2571 16.6142 12.0994 16.4409 11.9688C16.2704 11.8381 16.0744 11.7401 15.8528 11.6747C15.6312 11.6065 15.3897 11.5724 15.1284 11.5724C14.6596 11.5724 14.242 11.6903 13.8755 11.9261C13.5091 12.1619 13.2207 12.5085 13.0105 12.9659C12.8031 13.4205 12.6994 13.9744 12.6994 14.6278C12.6994 15.2869 12.8031 15.8452 13.0105 16.3026C13.2179 16.7599 13.5062 17.108 13.8755 17.3466C14.2449 17.5824 14.6738 17.7003 15.1625 17.7003C15.6056 17.7003 15.9892 17.6151 16.313 17.4446C16.6397 17.2741 16.8912 17.0327 17.0673 16.7202C17.2434 16.4048 17.3315 16.0355 17.3315 15.6122L17.6895 15.6676H15.3201V14.4318H18.8613V15.4801C18.8613 16.2273 18.7022 16.8736 18.3841 17.419C18.0659 17.9645 17.6284 18.3849 17.0716 18.6804C16.5147 18.973 15.8755 19.1193 15.1539 19.1193C14.35 19.1193 13.644 18.9389 13.036 18.5781C12.4309 18.2145 11.9579 17.6989 11.617 17.0312C11.2789 16.3608 11.1099 15.5653 11.1099 14.6449C11.1099 13.9403 11.2093 13.3111 11.4082 12.7571C11.6099 12.2031 11.8912 11.733 12.252 11.3466C12.6127 10.9574 13.036 10.6619 13.5218 10.4602C14.0076 10.2557 14.536 10.1534 15.1071 10.1534C15.59 10.1534 16.0403 10.2244 16.4579 10.3665C16.8755 10.5057 17.2463 10.7045 17.5701 10.9631C17.8968 11.2216 18.1653 11.5284 18.3755 11.8835C18.5858 12.2386 18.7235 12.6307 18.7889 13.0597H17.1781Z" fill="white"/>
</svg>
