<svg width="16" height="16" viewBox="0 0 16 16" fill="none" xmlns="http://www.w3.org/2000/svg">
<path d="M8.6665 3.3335H5.33317C5.15636 3.3335 4.98679 3.40373 4.86177 3.52876C4.73674 3.65378 4.6665 3.82335 4.6665 4.00016V6.00016" stroke="white" stroke-opacity="0.7" stroke-width="1.2" stroke-linecap="round" stroke-linejoin="round"/>
<path d="M4.66667 8.66667V10M6.66667 14H2.66667C2.48986 14 2.32029 13.9298 2.19526 13.8047C2.07024 13.6797 2 13.5101 2 13.3333V9.33333C2 9.15652 2.07024 8.98695 2.19526 8.86193C2.32029 8.7369 2.48986 8.66667 2.66667 8.66667H6.66667C6.84348 8.66667 7.01305 8.7369 7.13807 8.86193C7.2631 8.98695 7.33333 9.15652 7.33333 9.33333V13.3333C7.33333 13.5101 7.2631 13.6797 7.13807 13.8047C7.01305 13.9298 6.84348 14 6.66667 14ZM12.6667 2C12.313 2 11.9739 2.14048 11.7239 2.39052C11.4738 2.64057 11.3333 2.97971 11.3333 3.33333C11.3333 4.46 12.6667 6 12.6667 6C12.6667 6 14 4.46 14 3.33333C14 2.97971 13.8595 2.64057 13.6095 2.39052C13.3594 2.14048 13.0203 2 12.6667 2Z" stroke="white" stroke-opacity="0.7" stroke-width="1.2" stroke-linecap="round" stroke-linejoin="round"/>
</svg>
