<svg width="16" height="16" viewBox="0 0 16 16" fill="none" xmlns="http://www.w3.org/2000/svg">
<path d="M11.8068 8.47329L9.80683 10.4733C9.74485 10.5358 9.67112 10.5854 9.58988 10.6192C9.50864 10.6531 9.4215 10.6705 9.3335 10.6705C9.24549 10.6705 9.15835 10.6531 9.07711 10.6192C8.99587 10.5854 8.92214 10.5358 8.86016 10.4733C8.79768 10.4113 8.74808 10.3376 8.71424 10.2563C8.68039 10.1751 8.66296 10.088 8.66296 9.99996C8.66296 9.91195 8.68039 9.82482 8.71424 9.74358C8.74808 9.66234 8.79768 9.5886 8.86016 9.52663L10.3935 7.99996L8.86016 6.47329C8.73463 6.34776 8.6641 6.1775 8.6641 5.99996C8.6641 5.82243 8.73463 5.65216 8.86016 5.52663C8.9857 5.40109 9.15596 5.33057 9.3335 5.33057C9.51103 5.33057 9.68129 5.40109 9.80683 5.52663L11.8068 7.52663C11.8693 7.5886 11.9189 7.66234 11.9528 7.74358C11.9866 7.82482 12.004 7.91195 12.004 7.99996C12.004 8.08797 11.9866 8.17511 11.9528 8.25635C11.9189 8.33758 11.8693 8.41132 11.8068 8.47329ZM8.4735 7.52663L6.4735 5.52663C6.34796 5.40109 6.1777 5.33057 6.00016 5.33057C5.82263 5.33057 5.65237 5.40109 5.52683 5.52663C5.40129 5.65216 5.33077 5.82243 5.33077 5.99996C5.33077 6.1775 5.40129 6.34776 5.52683 6.47329L6.3935 7.33329H2.00016C1.82335 7.33329 1.65378 7.40353 1.52876 7.52856C1.40373 7.65358 1.3335 7.82315 1.3335 7.99996C1.3335 8.17677 1.40373 8.34634 1.52876 8.47137C1.65378 8.59639 1.82335 8.66663 2.00016 8.66663H6.3935L5.52683 9.52663C5.46434 9.5886 5.41475 9.66234 5.3809 9.74358C5.34706 9.82482 5.32963 9.91195 5.32963 9.99996C5.32963 10.088 5.34706 10.1751 5.3809 10.2563C5.41475 10.3376 5.46434 10.4113 5.52683 10.4733C5.5888 10.5358 5.66254 10.5854 5.74378 10.6192C5.82502 10.6531 5.91216 10.6705 6.00016 10.6705C6.08817 10.6705 6.17531 10.6531 6.25655 10.6192C6.33779 10.5854 6.41152 10.5358 6.4735 10.4733L8.4735 8.47329C8.53598 8.41132 8.58558 8.33758 8.61942 8.25635C8.65327 8.17511 8.6707 8.08797 8.6707 7.99996C8.6707 7.91195 8.65327 7.82482 8.61942 7.74358C8.58558 7.66234 8.53598 7.5886 8.4735 7.52663Z" fill="white" fill-opacity="0.7"/>
<path d="M13.3332 14H11.3332C11.1564 14 10.9868 13.9298 10.8618 13.8047C10.7367 13.6797 10.6665 13.5101 10.6665 13.3333C10.6665 13.1565 10.7367 12.987 10.8618 12.8619C10.9868 12.7369 11.1564 12.6667 11.3332 12.6667H13.3332V3.33333H11.3332C11.1564 3.33333 10.9868 3.2631 10.8618 3.13807C10.7367 3.01305 10.6665 2.84348 10.6665 2.66667C10.6665 2.48986 10.7367 2.32029 10.8618 2.19526C10.9868 2.07024 11.1564 2 11.3332 2H13.3332C13.6868 2 14.0259 2.14048 14.276 2.39052C14.526 2.64057 14.6665 2.97971 14.6665 3.33333V12.6667C14.6665 13.0203 14.526 13.3594 14.276 13.6095C14.0259 13.8595 13.6868 14 13.3332 14Z" fill="white" fill-opacity="0.7"/>
</svg>
