<svg width="16" height="16" viewBox="0 0 16 16" fill="none" xmlns="http://www.w3.org/2000/svg">
<path d="M3.5 4.025V2.75C3.5 2.612 3.388 2.5 3.25 2.5C3.112 2.5 3 2.612 3 2.75V4.025C2.153 4.1475 1.5 4.869 1.5 5.75C1.5 6.631 2.153 7.3525 3 7.475V13.25C3 13.388 3.112 13.5 3.25 13.5C3.388 13.5 3.5 13.388 3.5 13.25V7.475C4.347 7.3525 5 6.631 5 5.75C5 4.869 4.347 4.1475 3.5 4.025ZM3.25 7C2.561 7 2 6.439 2 5.75C2 5.0605 2.561 4.5 3.25 4.5C3.939 4.5 4.5 5.0605 4.5 5.75C4.5 6.439 3.939 7 3.25 7ZM8 8.525V2.75C8 2.612 7.888 2.5 7.75 2.5C7.612 2.5 7.5 2.612 7.5 2.75V8.525C6.653 8.6475 6 9.369 6 10.25C6 11.131 6.653 11.8525 7.5 11.975V13.25C7.5 13.388 7.612 13.5 7.75 13.5C7.888 13.5 8 13.388 8 13.25V11.975C8.847 11.8525 9.5 11.131 9.5 10.25C9.5 9.369 8.847 8.6475 8 8.525ZM7.75 11.5C7.061 11.5 6.5 10.939 6.5 10.25C6.5 9.5605 7.061 9 7.75 9C8.439 9 9 9.5605 9 10.25C9 10.939 8.439 11.5 7.75 11.5ZM14 7.25C14 6.369 13.347 5.6475 12.5 5.525V2.75C12.5 2.612 12.388 2.5 12.25 2.5C12.112 2.5 12 2.612 12 2.75V5.525C11.153 5.6475 10.5 6.369 10.5 7.25C10.5 8.131 11.153 8.8525 12 8.975V13.25C12 13.388 12.112 13.5 12.25 13.5C12.388 13.5 12.5 13.388 12.5 13.25V8.975C13.347 8.8525 14 8.131 14 7.25ZM12.25 8.5C11.561 8.5 11 7.939 11 7.25C11 6.5605 11.561 6 12.25 6C12.939 6 13.5 6.5605 13.5 7.25C13.5 7.939 12.939 8.5 12.25 8.5Z" stroke="white" stroke-opacity="0.7" stroke-width="0.8"/>
</svg>
