<svg width="31" height="22" viewBox="0 0 31 22" fill="none" xmlns="http://www.w3.org/2000/svg">
<path d="M29.2132 9.19043H2.02263C1.13653 9.19043 0.418213 9.90875 0.418213 10.7948V10.9637C0.418213 11.8498 1.13653 12.5681 2.02263 12.5681H29.2132C30.0993 12.5681 30.8176 11.8498 30.8176 10.9637V10.7948C30.8176 9.90875 30.0993 9.19043 29.2132 9.19043Z" fill="black"/>
<path d="M29.2132 17.6328H2.02263C1.13653 17.6328 0.418213 18.3511 0.418213 19.2372V19.4061C0.418213 20.2922 1.13653 21.0105 2.02263 21.0105H29.2132C30.0993 21.0105 30.8176 20.2922 30.8176 19.4061V19.2372C30.8176 18.3511 30.0993 17.6328 29.2132 17.6328Z" fill="black"/>
<path d="M29.2132 0.745117H2.02263C1.13653 0.745117 0.418213 1.46344 0.418213 2.34953V2.51842C0.418213 3.40451 1.13653 4.12283 2.02263 4.12283H29.2132C30.0993 4.12283 30.8176 3.40451 30.8176 2.51842V2.34953C30.8176 1.46344 30.0993 0.745117 29.2132 0.745117Z" fill="black"/>
</svg>
