<svg width="16" height="16" viewBox="0 0 16 16" fill="none" xmlns="http://www.w3.org/2000/svg">
<path fill-rule="evenodd" clip-rule="evenodd" d="M9.11089 4.66304C8.89263 4.81437 8.64642 4.9207 8.38663 4.97585C8.12683 5.031 7.85865 5.03385 7.59775 4.98424C7.33684 4.93463 7.08842 4.83356 6.86699 4.68691C6.64557 4.54026 6.45557 4.35098 6.30808 4.13011C6.16059 3.90925 6.05857 3.66122 6.00797 3.4005C5.95737 3.13978 5.9592 2.87159 6.01336 2.61159C6.06752 2.35159 6.17292 2.10497 6.32342 1.88614C6.47391 1.66731 6.66648 1.48065 6.88989 1.33704C7.33097 1.0457 7.86946 0.94083 8.38764 1.04536C8.90582 1.14988 9.36154 1.4553 9.65519 1.89485C9.94884 2.3344 10.0565 2.87233 9.95473 3.39105C9.85292 3.90977 9.54989 4.36709 9.11189 4.66304H9.11089ZM8.55589 2.16904C8.44699 2.0907 8.32343 2.03507 8.19258 2.00546C8.06173 1.97586 7.92627 1.97288 7.79424 1.99672C7.66222 2.02055 7.53635 2.07071 7.42411 2.1442C7.31187 2.21769 7.21557 2.31301 7.14094 2.42449C7.0663 2.53597 7.01487 2.66133 6.98968 2.7931C6.9645 2.92487 6.96609 3.06037 6.99436 3.19151C7.02263 3.32265 7.07699 3.44677 7.15422 3.55647C7.23145 3.66617 7.32996 3.7592 7.44389 3.83004C7.664 3.96375 7.92722 4.00739 8.1787 3.95185C8.43019 3.89632 8.65055 3.74589 8.79389 3.53192C8.93722 3.31795 8.99248 3.05693 8.94814 2.80323C8.90381 2.54953 8.7633 2.32272 8.55589 2.17004V2.16904ZM11.1659 2.19904C11.4543 2.00504 11.8013 1.91768 12.1472 1.95199C12.4931 1.98631 12.8162 2.14016 13.0609 2.38704C13.2352 2.56279 13.3638 2.77863 13.4353 3.01564C13.5068 3.25265 13.519 3.50358 13.471 3.74643C13.4229 3.98927 13.316 4.21661 13.1596 4.4085C13.0031 4.60039 12.802 4.75098 12.5739 4.84704C12.2999 4.96161 11.9979 4.99179 11.7066 4.93371C11.4153 4.87564 11.148 4.73195 10.9389 4.52104C10.7817 4.36306 10.6614 4.17228 10.5866 3.96237C10.5117 3.75246 10.4842 3.5286 10.506 3.30682C10.5278 3.08504 10.5983 2.87081 10.7126 2.67947C10.8268 2.48814 10.982 2.32442 11.1669 2.20004L11.1659 2.19904ZM11.6459 3.80904C11.7398 3.90253 11.867 3.95489 11.9994 3.95461C12.0651 3.95447 12.13 3.94141 12.1905 3.91618C12.2511 3.89094 12.3061 3.85403 12.3524 3.80754C12.3987 3.76105 12.4354 3.7059 12.4603 3.64524C12.4853 3.58457 12.4981 3.51959 12.498 3.45398C12.4978 3.38838 12.4848 3.32344 12.4595 3.26288C12.4343 3.20233 12.3974 3.14733 12.3509 3.10104C12.2578 3.0074 12.1319 2.95362 11.9999 2.95104C11.9339 2.95091 11.8686 2.96385 11.8077 2.98912C11.7468 3.01438 11.6915 3.05148 11.645 3.09825C11.5985 3.14502 11.5617 3.20055 11.5368 3.26162C11.5119 3.32269 11.4994 3.38809 11.4999 3.45404C11.5002 3.58722 11.5526 3.71399 11.6459 3.80904ZM3.18989 12.487H4.99989V13.492H3.18989C2.87303 13.4892 2.57024 13.3608 2.34789 13.135C2.12468 12.9085 1.99967 12.6031 1.99989 12.285V10.475C1.86525 10.4705 1.73292 10.4388 1.6109 10.3817C1.48887 10.3247 1.37967 10.2435 1.28989 10.143C1.19449 10.0464 1.11962 9.93148 1.06979 9.80517C1.01995 9.67886 0.996175 9.54378 0.999888 9.40804V7.22604C1.00289 6.75404 1.18989 6.30304 1.51989 5.96804C1.84889 5.63704 2.29389 5.44804 2.75989 5.44504H4.59989C4.3517 5.74061 4.16474 6.08257 4.04989 6.45104H2.75989C2.55693 6.45686 2.36382 6.53982 2.21989 6.68304C2.07851 6.8284 1.99956 7.02327 1.99989 7.22604V9.45804H2.99989V12.284C2.99757 12.3113 3.00081 12.3387 3.0094 12.3647C3.01799 12.3906 3.03177 12.4146 3.04989 12.435C3.09009 12.4661 3.13911 12.4836 3.18989 12.485V12.487ZM10.4899 5.96904C10.3263 5.80382 10.1316 5.67256 9.91708 5.58281C9.70256 5.49306 9.47242 5.44658 9.23989 5.44604H6.75989C6.29371 5.44977 5.84793 5.63779 5.51989 5.96904C5.18989 6.30404 5.00289 6.75504 4.99989 7.22704V10.405C4.99847 10.6779 5.10235 10.9408 5.28989 11.139C5.37978 11.2393 5.489 11.3204 5.61101 11.3775C5.73301 11.4346 5.86528 11.4664 5.99989 11.471V13.794C5.99895 13.9526 6.0294 14.1098 6.08946 14.2565C6.14953 14.4032 6.23804 14.5367 6.34989 14.649C6.52989 14.817 6.75689 14.926 6.99989 14.961H8.99989C9.28116 14.9241 9.53886 14.7845 9.72345 14.5691C9.90804 14.3537 10.0065 14.0777 9.99989 13.794V11.47C10.1345 11.4655 10.2669 11.4338 10.3889 11.3767C10.5109 11.3197 10.6201 11.2385 10.7099 11.138C10.8052 11.0416 10.88 10.9268 10.9299 10.8007C10.9797 10.6745 11.0035 10.5396 10.9999 10.404V7.22604C11.0006 6.75622 10.8176 6.30575 10.4899 5.96904ZM9.99989 10.454H8.99989V13.794C8.99892 13.8467 8.97739 13.897 8.93989 13.934C8.92283 13.9542 8.90129 13.9702 8.87699 13.9806C8.85268 13.991 8.82628 13.9956 8.79989 13.994H7.18989C7.13763 13.9916 7.08816 13.9698 7.05117 13.9328C7.01418 13.8958 6.99232 13.8463 6.98989 13.794V10.454H5.99989V7.22604C5.99989 7.02304 6.07889 6.82804 6.21989 6.68304C6.36382 6.53982 6.55693 6.45686 6.75989 6.45104H9.23989C9.39138 6.45371 9.53879 6.50056 9.66403 6.58583C9.78926 6.67109 9.88688 6.79108 9.94489 6.93104C9.98296 7.02465 10.0017 7.125 9.99989 7.22604V10.454ZM12.8099 13.491H10.9999V12.486H12.7999C12.8507 12.4846 12.8997 12.4671 12.9399 12.436C12.96 12.4164 12.9758 12.3926 12.9861 12.3664C12.9965 12.3403 13.0012 12.3122 12.9999 12.284V9.45804H13.9999V7.22604C14.0002 7.02327 13.9213 6.8284 13.7799 6.68304C13.636 6.53982 13.4429 6.45686 13.2399 6.45104H11.9499C11.8351 6.08255 11.6481 5.74058 11.3999 5.44504H13.2399C13.706 5.44931 14.1515 5.63724 14.4799 5.96804C14.8099 6.30304 14.9969 6.75404 14.9999 7.22604V9.40804C14.9999 9.68104 14.8969 9.94304 14.7109 10.141C14.5249 10.34 14.2709 10.459 13.9999 10.474V12.284C13.9999 12.603 13.8749 12.908 13.6519 13.134C13.4295 13.3598 13.1267 13.4882 12.8099 13.491ZM3.99989 1.94504C3.70232 1.9447 3.41142 2.03322 3.16449 2.19927C2.91755 2.36532 2.72583 2.60133 2.61389 2.87704C2.50092 3.15266 2.47159 3.45544 2.52957 3.74761C2.58754 4.03979 2.73025 4.30843 2.93989 4.52004C3.14945 4.7314 3.41727 4.8755 3.70913 4.93391C4.00098 4.99233 4.30363 4.96242 4.5784 4.848C4.85317 4.73359 5.0876 4.53986 5.25174 4.29156C5.41588 4.04326 5.50227 3.75168 5.49989 3.45404C5.49989 3.05404 5.34189 2.67004 5.05989 2.38704C4.92103 2.24717 4.7559 2.13612 4.57399 2.06027C4.39208 1.98442 4.19698 1.94526 3.99989 1.94504ZM3.99989 3.95704C3.93394 3.95718 3.86861 3.94423 3.80769 3.91897C3.74677 3.8937 3.69147 3.85661 3.64497 3.80983C3.59848 3.76306 3.56172 3.70753 3.53681 3.64646C3.51191 3.58539 3.49936 3.51999 3.49989 3.45404C3.50015 3.32124 3.55281 3.1939 3.64644 3.09971C3.74007 3.00552 3.86709 2.95209 3.99989 2.95104C4.13229 2.95337 4.25856 3.00721 4.35192 3.10112C4.44527 3.19504 4.49835 3.32163 4.49989 3.45404C4.49963 3.58685 4.44696 3.71418 4.35334 3.80837C4.25971 3.90256 4.13269 3.95599 3.99989 3.95704Z" fill="white" fill-opacity="0.7"/>
</svg>
