<svg width="30" height="30" viewBox="0 0 30 30" fill="none" xmlns="http://www.w3.org/2000/svg">
<circle cx="15" cy="15" r="14" fill="#001F8C" stroke="white" stroke-width="2"/>
<path d="M7.99417 19V10.2727H11.2669C11.9374 10.2727 12.4999 10.3977 12.9544 10.6477C13.4118 10.8977 13.757 11.2415 13.9899 11.679C14.2257 12.1136 14.3436 12.608 14.3436 13.1619C14.3436 13.7216 14.2257 14.2187 13.9899 14.6534C13.7541 15.0881 13.4061 15.4304 12.9459 15.6804C12.4856 15.9276 11.9189 16.0511 11.2456 16.0511H9.07656V14.7514H11.0325C11.4246 14.7514 11.7456 14.6832 11.9956 14.5469C12.2456 14.4105 12.4303 14.223 12.5496 13.9844C12.6717 13.7457 12.7328 13.4716 12.7328 13.1619C12.7328 12.8523 12.6717 12.5795 12.5496 12.3438C12.4303 12.108 12.2442 11.9247 11.9913 11.794C11.7413 11.6605 11.4189 11.5938 11.024 11.5938H9.57514V19H7.99417ZM21.5154 13.0597C21.4444 12.8295 21.3464 12.6236 21.2214 12.4418C21.0992 12.2571 20.9515 12.0994 20.7782 11.9688C20.6077 11.8381 20.4117 11.7401 20.1901 11.6747C19.9685 11.6065 19.7271 11.5724 19.4657 11.5724C18.997 11.5724 18.5793 11.6903 18.2129 11.9261C17.8464 12.1619 17.558 12.5085 17.3478 12.9659C17.1404 13.4205 17.0367 13.9744 17.0367 14.6278C17.0367 15.2869 17.1404 15.8452 17.3478 16.3026C17.5552 16.7599 17.8435 17.108 18.2129 17.3466C18.5822 17.5824 19.0112 17.7003 19.4998 17.7003C19.943 17.7003 20.3265 17.6151 20.6504 17.4446C20.9771 17.2741 21.2285 17.0327 21.4046 16.7202C21.5808 16.4048 21.6688 16.0355 21.6688 15.6122L22.0268 15.6676H19.6575V14.4318H23.1987V15.4801C23.1987 16.2273 23.0396 16.8736 22.7214 17.419C22.4032 17.9645 21.9657 18.3849 21.4089 18.6804C20.8521 18.973 20.2129 19.1193 19.4913 19.1193C18.6873 19.1193 17.9813 18.9389 17.3734 18.5781C16.7683 18.2145 16.2952 17.6989 15.9543 17.0312C15.6163 16.3608 15.4472 15.5653 15.4472 14.6449C15.4472 13.9403 15.5467 13.3111 15.7455 12.7571C15.9472 12.2031 16.2285 11.733 16.5893 11.3466C16.9501 10.9574 17.3734 10.6619 17.8592 10.4602C18.345 10.2557 18.8734 10.1534 19.4444 10.1534C19.9273 10.1534 20.3776 10.2244 20.7952 10.3665C21.2129 10.5057 21.5836 10.7045 21.9075 10.9631C22.2342 11.2216 22.5026 11.5284 22.7129 11.8835C22.9231 12.2386 23.0609 12.6307 23.1262 13.0597H21.5154Z" fill="white"/>
</svg>
