<svg width="16" height="10" viewBox="0 0 16 10" fill="none" xmlns="http://www.w3.org/2000/svg">
<path d="M-0.00582939 9V0.272727H3.2669C3.93735 0.272727 4.49985 0.397727 4.9544 0.647727C5.41178 0.897727 5.75696 1.24148 5.98991 1.67898C6.22571 2.11364 6.3436 2.60795 6.3436 3.16193C6.3436 3.72159 6.22571 4.21875 5.98991 4.65341C5.75411 5.08807 5.4061 5.4304 4.94588 5.6804C4.48565 5.92756 3.91889 6.05114 3.24559 6.05114H1.07656V4.75142H3.03252C3.42457 4.75142 3.74559 4.68324 3.99559 4.54688C4.24559 4.41051 4.43025 4.22301 4.54957 3.98438C4.67173 3.74574 4.73281 3.47159 4.73281 3.16193C4.73281 2.85227 4.67173 2.57955 4.54957 2.34375C4.43025 2.10795 4.24417 1.92472 3.99133 1.79403C3.74133 1.66051 3.41889 1.59375 3.024 1.59375H1.57514V9H-0.00582939ZM13.5154 3.05966C13.4444 2.82955 13.3464 2.62358 13.2214 2.44176C13.0992 2.2571 12.9515 2.09943 12.7782 1.96875C12.6077 1.83807 12.4117 1.74006 12.1901 1.67472C11.9685 1.60653 11.7271 1.57244 11.4657 1.57244C10.997 1.57244 10.5793 1.69034 10.2129 1.92614C9.84638 2.16193 9.55803 2.50852 9.3478 2.96591C9.14042 3.42045 9.03672 3.97443 9.03672 4.62784C9.03672 5.28693 9.14042 5.84517 9.3478 6.30256C9.55519 6.75994 9.84354 7.10795 10.2129 7.34659C10.5822 7.58239 11.0112 7.70028 11.4998 7.70028C11.943 7.70028 12.3265 7.61506 12.6504 7.4446C12.9771 7.27415 13.2285 7.03267 13.4046 6.72017C13.5808 6.40483 13.6688 6.03551 13.6688 5.61222L14.0268 5.66761H11.6575V4.43182H15.1987V5.48011C15.1987 6.22727 15.0396 6.87358 14.7214 7.41903C14.4032 7.96449 13.9657 8.38494 13.4089 8.6804C12.8521 8.97301 12.2129 9.11932 11.4913 9.11932C10.6873 9.11932 9.98133 8.93892 9.37337 8.57812C8.76826 8.21449 8.29525 7.69886 7.95434 7.03125C7.61627 6.3608 7.44724 5.56534 7.44724 4.64489C7.44724 3.94034 7.54667 3.31108 7.74553 2.7571C7.94724 2.20312 8.22849 1.73295 8.58928 1.34659C8.95008 0.957386 9.37337 0.661932 9.85917 0.460227C10.345 0.255682 10.8734 0.153409 11.4444 0.153409C11.9273 0.153409 12.3776 0.224432 12.7952 0.366477C13.2129 0.505682 13.5836 0.704545 13.9075 0.963068C14.2342 1.22159 14.5026 1.52841 14.7129 1.88352C14.9231 2.23864 15.0609 2.63068 15.1262 3.05966H13.5154Z" fill="white"/>
</svg>
