<svg width="16" height="16" viewBox="0 0 16 16" fill="none" xmlns="http://www.w3.org/2000/svg">
<path fill-rule="evenodd" clip-rule="evenodd" d="M8 5.5C6.61929 5.5 5.5 6.61929 5.5 8C5.5 9.38073 6.61929 10.5 8 10.5C9.38073 10.5 10.5 9.38073 10.5 8C10.5 6.61929 9.38073 5.5 8 5.5ZM6.5 8C6.5 7.1716 7.1716 6.5 8 6.5C8.8284 6.5 9.5 7.1716 9.5 8C9.5 8.8284 8.8284 9.5 8 9.5C7.1716 9.5 6.5 8.8284 6.5 8Z" fill="white" fill-opacity="0.7"/>
<path fill-rule="evenodd" clip-rule="evenodd" d="M7.98297 0.833496C7.6867 0.83349 7.4393 0.83349 7.23624 0.847343C7.02484 0.86177 6.82517 0.892863 6.63158 0.97305C6.18236 1.15912 5.82546 1.51602 5.63938 1.96524C5.54252 2.19911 5.51628 2.44558 5.50626 2.71347C5.49821 2.92882 5.38953 3.1085 5.22914 3.2011C5.06875 3.2937 4.8588 3.29798 4.66828 3.19728C4.43126 3.07201 4.2047 2.97149 3.95372 2.93845C3.47166 2.87498 2.98412 3.00562 2.59836 3.30162C2.43212 3.42918 2.30535 3.58656 2.18716 3.76243C2.07362 3.93137 1.94995 4.1456 1.8018 4.40221L1.78496 4.43137C1.6368 4.68798 1.51312 4.90219 1.42358 5.08498C1.33038 5.27528 1.25746 5.46376 1.23011 5.6715C1.16664 6.15358 1.29728 6.64111 1.59328 7.0269C1.74736 7.22763 1.94766 7.37363 2.17462 7.51623C2.35714 7.6309 2.45842 7.8149 2.45841 8.00016C2.4584 8.18536 2.35712 8.36936 2.17462 8.48403C1.94763 8.62663 1.74731 8.77263 1.59322 8.97343C1.29722 9.35916 1.16658 9.8467 1.23004 10.3288C1.2574 10.5365 1.33031 10.725 1.42352 10.9153C1.51306 11.0981 1.63674 11.3123 1.78489 11.5689L1.80173 11.5981C1.94988 11.8547 2.07356 12.0689 2.1871 12.2378C2.30528 12.4137 2.43206 12.5711 2.5983 12.6986C2.98405 12.9946 3.47159 13.1253 3.95366 13.0618C4.20462 13.0288 4.43117 12.9283 4.66817 12.803C4.85872 12.7023 5.0687 12.7066 5.2291 12.7992C5.38952 12.8918 5.49821 13.0715 5.50626 13.2869C5.51628 13.5548 5.54252 13.8012 5.63938 14.0351C5.82546 14.4843 6.18236 14.8412 6.63158 15.0273C6.82517 15.1075 7.02484 15.1386 7.23624 15.153C7.4393 15.1668 7.6867 15.1668 7.98297 15.1668H8.01664C8.31297 15.1668 8.5603 15.1668 8.76344 15.153C8.97484 15.1386 9.1745 15.1075 9.3681 15.0273C9.8173 14.8412 10.1742 14.4843 10.3603 14.0351C10.4572 13.8012 10.4834 13.5548 10.4934 13.2868C10.5014 13.0715 10.6101 12.8918 10.7705 12.7992C10.9309 12.7066 11.1409 12.7023 11.3314 12.803C11.5684 12.9282 11.795 13.0288 12.046 13.0618C12.528 13.1252 13.0156 12.9946 13.4013 12.6986C13.5676 12.571 13.6943 12.4137 13.8125 12.2378C13.926 12.0689 14.0497 11.8547 14.1978 11.5981L14.2147 11.5689C14.3628 11.3123 14.4866 11.098 14.5761 10.9152C14.6693 10.725 14.7422 10.5365 14.7696 10.3288C14.833 9.84663 14.7024 9.3591 14.4064 8.97336C14.2523 8.77256 14.052 8.62663 13.825 8.48403C13.6425 8.36936 13.5412 8.18536 13.5412 8.0001C13.5412 7.8149 13.6425 7.63096 13.825 7.5163C14.052 7.3737 14.2524 7.22776 14.4064 7.0269C14.7024 6.64116 14.8331 6.15362 14.7696 5.67155C14.7422 5.4638 14.6694 5.27532 14.5762 5.08503C14.4866 4.90225 14.363 4.68805 14.2148 4.43146L14.198 4.40228C14.0498 4.14566 13.9261 3.93142 13.8126 3.76248C13.6944 3.58661 13.5676 3.42923 13.4014 3.30166C13.0156 3.00567 12.5281 2.87503 12.046 2.9385C11.795 2.97154 11.5685 3.07204 11.3315 3.19731C11.141 3.29802 10.931 3.29374 10.7706 3.20112C10.6102 3.10852 10.5014 2.92881 10.4934 2.71344C10.4834 2.44555 10.4572 2.1991 10.3603 1.96524C10.1742 1.51602 9.8173 1.15912 9.3681 0.97305C9.1745 0.892863 8.97484 0.86177 8.76344 0.847343C8.5603 0.83349 8.31297 0.83349 8.01664 0.833496H7.98297ZM7.01424 1.89693C7.0657 1.87562 7.14384 1.85598 7.3043 1.84502C7.4693 1.83377 7.68237 1.8335 7.99984 1.8335C8.3173 1.8335 8.53037 1.83377 8.6953 1.84502C8.85584 1.85598 8.93397 1.87562 8.98537 1.89693C9.18957 1.98151 9.35184 2.14374 9.43637 2.34793C9.4631 2.41234 9.48517 2.51274 9.4941 2.75081C9.51384 3.27906 9.7865 3.78769 10.2706 4.06715C10.7546 4.34662 11.3314 4.32843 11.7988 4.08142C12.0094 3.9701 12.1074 3.93904 12.1765 3.92994C12.3956 3.9011 12.6172 3.96048 12.7926 4.09502C12.8368 4.12891 12.8928 4.18676 12.9826 4.32027C13.0748 4.45752 13.1816 4.6419 13.3403 4.91683C13.499 5.19177 13.6054 5.37642 13.6781 5.52492C13.7488 5.66938 13.7709 5.74688 13.7782 5.80208C13.807 6.0212 13.7476 6.24281 13.6131 6.41815C13.5706 6.47346 13.4948 6.54282 13.293 6.66956C12.8454 6.95083 12.5413 7.44123 12.5412 8.0001C12.5412 8.55903 12.8454 9.0495 13.293 9.33076C13.4947 9.4575 13.5706 9.52683 13.613 9.58216C13.7476 9.7575 13.807 9.9791 13.7781 10.1982C13.7708 10.2534 13.7488 10.3309 13.678 10.4754C13.6053 10.6238 13.499 10.8085 13.3402 11.0834C13.1815 11.3584 13.0748 11.5428 12.9825 11.68C12.8928 11.8135 12.8367 11.8714 12.7925 11.9052C12.6172 12.0398 12.3956 12.0992 12.1764 12.0704C12.1074 12.0612 12.0093 12.0302 11.7987 11.9189C11.3314 11.6718 10.7545 11.6537 10.2704 11.9332C9.7865 12.2126 9.51384 12.7212 9.4941 13.2495C9.48517 13.4876 9.4631 13.588 9.43637 13.6524C9.35184 13.8566 9.18957 14.0188 8.98537 14.1034C8.93397 14.1247 8.85584 14.1444 8.6953 14.1553C8.53037 14.1666 8.3173 14.1668 7.99984 14.1668C7.68237 14.1668 7.4693 14.1666 7.3043 14.1553C7.14384 14.1444 7.0657 14.1247 7.01424 14.1034C6.8101 14.0188 6.64784 13.8566 6.56326 13.6524C6.53658 13.588 6.51447 13.4876 6.50556 13.2495C6.48581 12.7213 6.21315 12.2126 5.7291 11.9332C5.24506 11.6537 4.66825 11.6719 4.20089 11.9189C3.99027 12.0302 3.89226 12.0613 3.82314 12.0704C3.60401 12.0992 3.3824 12.0398 3.20706 11.9053C3.16289 11.8714 3.1068 11.8136 3.01708 11.68C2.92484 11.5428 2.81808 11.3584 2.65934 11.0835C2.5006 10.8086 2.39431 10.6239 2.32157 10.4754C2.25081 10.331 2.22876 10.2534 2.22149 10.1982C2.19264 9.9791 2.25202 9.7575 2.38657 9.58216C2.42901 9.5269 2.50491 9.4575 2.70664 9.33076C3.15422 9.04956 3.45838 8.5591 3.45841 8.00023C3.45844 7.44123 3.15427 6.95076 2.70664 6.6695C2.50496 6.54276 2.42907 6.47341 2.38663 6.4181C2.25209 6.24276 2.19271 6.02116 2.22156 5.80203C2.22882 5.74684 2.25088 5.66933 2.32164 5.52488C2.39438 5.37637 2.50067 5.19172 2.6594 4.91678C2.81814 4.64185 2.9249 4.45747 3.01714 4.32022C3.10687 4.18672 3.16296 4.12886 3.20712 4.09498C3.38247 3.96043 3.60408 3.90105 3.8232 3.9299C3.89232 3.939 3.99034 3.97005 4.20099 4.08139C4.66832 4.3284 5.24511 4.34658 5.72913 4.06713C6.21316 3.78768 6.48581 3.27908 6.50556 2.75084C6.51447 2.51276 6.53658 2.41234 6.56326 2.34793C6.64784 2.14374 6.8101 1.98151 7.01424 1.89693Z" fill="white" fill-opacity="0.7"/>
</svg>
