<svg width="16" height="16" viewBox="0 0 16 16" fill="none" xmlns="http://www.w3.org/2000/svg">
<path fill-rule="evenodd" clip-rule="evenodd" d="M13.6257 0.265321L10.3258 0.736729C9.82169 0.808749 9.4098 1.04904 9.11569 1.38114L1.41626 9.08057C0.635208 9.86162 0.635176 11.1279 1.41626 11.909L4.24468 14.7374C5.02576 15.5185 6.29206 15.5185 7.07311 14.7374L14.7725 7.03799C15.1046 6.74388 15.3449 6.33199 15.4169 5.82786L15.8884 2.52803C16.077 1.20815 14.9455 0.0767081 13.6257 0.265321ZM11.3157 4.83793C11.7062 5.22843 12.3394 5.22846 12.73 4.83793C13.1205 4.4474 13.1205 3.81421 12.73 3.42372C12.3395 3.03322 11.7063 3.03319 11.3157 3.42372C10.9252 3.81424 10.9253 4.44743 11.3157 4.83793Z" fill="white"/>
</svg>
