<svg width="16" height="16" viewBox="0 0 16 16" fill="none" xmlns="http://www.w3.org/2000/svg">
<path d="M12.6065 9.79529C12.6065 10.6553 13.3132 11.3553 14.1732 11.3553C14.1732 13.8553 13.5465 14.482 11.0465 14.482H4.79317C2.29317 14.482 1.6665 13.8553 1.6665 11.3553V11.0486C2.5265 11.0486 3.23317 10.342 3.23317 9.48196C3.23317 8.62196 2.5265 7.91529 1.6665 7.91529V7.60863C1.67317 5.1086 2.29317 4.48193 4.79317 4.48193H11.0398C13.5398 4.48193 14.1665 5.1086 14.1665 7.60863V8.23529C13.3065 8.23529 12.6065 8.92863 12.6065 9.79529Z" stroke="white" stroke-opacity="0.7" stroke-width="1.5" stroke-linecap="round" stroke-linejoin="round"/>
<path d="M10.8071 4.48183H4.74707L6.70041 2.5285C8.29374 0.935163 9.09374 0.935163 10.6871 2.5285L11.0871 2.9285C10.6671 3.3485 10.5671 3.9685 10.8071 4.48183Z" stroke="white" stroke-opacity="0.7" stroke-width="1.5" stroke-linecap="round" stroke-linejoin="round"/>
<path d="M6.58594 4.48193V14.482" stroke="white" stroke-opacity="0.7" stroke-width="1.5" stroke-linecap="round" stroke-linejoin="round" stroke-dasharray="166.67 166.67"/>
</svg>
