<svg width="16" height="16" viewBox="0 0 16 16" fill="none" xmlns="http://www.w3.org/2000/svg">
<path d="M13 1.75H3C2.60218 1.75 2.22064 1.90804 1.93934 2.18934C1.65804 2.47064 1.5 2.85218 1.5 3.25V12.75C1.5 13.1478 1.65804 13.5294 1.93934 13.8107C2.22064 14.092 2.60218 14.25 3 14.25H13C13.3978 14.25 13.7794 14.092 14.0607 13.8107C14.342 13.5294 14.5 13.1478 14.5 12.75V3.25C14.5 2.85218 14.342 2.47064 14.0607 2.18934C13.7794 1.90804 13.3978 1.75 13 1.75ZM13.5 12.75C13.5 12.8826 13.4473 13.0098 13.3536 13.1036C13.2598 13.1973 13.1326 13.25 13 13.25H3C2.86739 13.25 2.74021 13.1973 2.64645 13.1036C2.55268 13.0098 2.5 12.8826 2.5 12.75V3.25C2.5 3.11739 2.55268 2.99021 2.64645 2.89645C2.74021 2.80268 2.86739 2.75 3 2.75H13C13.1326 2.75 13.2598 2.80268 13.3536 2.89645C13.4473 2.99021 13.5 3.11739 13.5 3.25V12.75Z" fill="white" fill-opacity="0.7"/>
<path d="M11.2501 7.25007C11.3827 7.25007 11.5099 7.19739 11.6037 7.10363C11.6974 7.00986 11.7501 6.88268 11.7501 6.75007C11.7501 6.61746 11.6974 6.49029 11.6037 6.39652C11.5099 6.30275 11.3827 6.25007 11.2501 6.25007H5.70762L6.35262 5.60257C6.43453 5.50692 6.47734 5.38388 6.47248 5.25805C6.46762 5.13221 6.41545 5.01284 6.3264 4.92379C6.23736 4.83474 6.11799 4.78258 5.99215 4.77772C5.86631 4.77286 5.74327 4.81566 5.64762 4.89757L4.14762 6.39757C4.0774 6.46733 4.02947 6.55635 4.00988 6.65337C3.9903 6.75039 3.99995 6.85104 4.03762 6.94257C4.07568 7.03381 4.13993 7.11171 4.22225 7.16644C4.30457 7.22118 4.40127 7.25028 4.50012 7.25007H11.2501Z" fill="white" fill-opacity="0.7"/>
<path d="M11.75 9H5C4.86739 9 4.74021 9.05268 4.64645 9.14645C4.55268 9.24022 4.5 9.36739 4.5 9.5C4.5 9.63261 4.55268 9.75979 4.64645 9.85355C4.74021 9.94732 4.86739 10 5 10H10.5425L9.8975 10.6475C9.84516 10.6923 9.80265 10.7475 9.77264 10.8095C9.74263 10.8715 9.72576 10.9391 9.7231 11.008C9.72044 11.0768 9.73204 11.1455 9.75718 11.2097C9.78232 11.2738 9.82045 11.3321 9.86917 11.3808C9.9179 11.4296 9.97618 11.4677 10.0403 11.4928C10.1045 11.518 10.1732 11.5296 10.242 11.5269C10.3109 11.5242 10.3785 11.5074 10.4405 11.4774C10.5025 11.4474 10.5577 11.4048 10.6025 11.3525L12.1025 9.8525C12.1727 9.78275 12.2207 9.69372 12.2402 9.5967C12.2598 9.49968 12.2502 9.39903 12.2125 9.3075C12.1744 9.21627 12.1102 9.13836 12.0279 9.08363C11.9456 9.0289 11.8489 8.9998 11.75 9Z" fill="white" fill-opacity="0.7"/>
</svg>
