<svg width="12" height="12" viewBox="0 0 12 12" fill="none" xmlns="http://www.w3.org/2000/svg">
<path fill-rule="evenodd" clip-rule="evenodd" d="M9.10092 3.11245L6.43924 0.831258C6.31497 0.72232 6.15808 0.666586 6.00038 0.666504C5.89247 0.666448 5.78418 0.692447 5.68568 0.745284C5.64179 0.76877 5.60008 0.797453 5.56152 0.831258L2.89984 3.11245C2.62027 3.35204 2.58788 3.77291 2.82748 4.05247C3.06708 4.33204 3.48794 4.36443 3.7675 4.12484L5.33367 2.78256V7.94565C5.33367 8.31384 5.63214 8.61232 6.00033 8.61232C6.36852 8.61232 6.667 8.31384 6.667 7.94565L6.667 2.78249L8.23325 4.12484C8.51282 4.36443 8.93368 4.33204 9.17328 4.05247C9.41288 3.77291 9.38048 3.35204 9.10092 3.11245ZM2.00033 7.33317C2.00033 6.96498 2.2988 6.6665 2.66699 6.6665H3.66699C4.03518 6.6665 4.33366 6.36803 4.33366 5.99984C4.33366 5.63165 4.03518 5.33317 3.66699 5.33317H2.66699C1.56242 5.33317 0.666992 6.2286 0.666992 7.33317V9.33317C0.666992 10.4377 1.56242 11.3332 2.66699 11.3332H9.33366C10.4382 11.3332 11.3337 10.4377 11.3337 9.33317V7.33317C11.3337 6.2286 10.4382 5.33317 9.33366 5.33317H8.33366C7.96547 5.33317 7.66699 5.63165 7.66699 5.99984C7.66699 6.36803 7.96547 6.6665 8.33366 6.6665H9.33366C9.70185 6.6665 10.0003 6.96498 10.0003 7.33317V9.33317C10.0003 9.70136 9.70185 9.99984 9.33366 9.99984H2.66699C2.2988 9.99984 2.00033 9.70136 2.00033 9.33317V7.33317Z" fill="#757575"/>
</svg>
