<svg width="16" height="16" viewBox="0 0 16 16" fill="none" xmlns="http://www.w3.org/2000/svg">
<path d="M4 5.3335H6.66667" stroke="white" stroke-opacity="0.7" stroke-width="1.2" stroke-linecap="round" stroke-linejoin="round"/>
<path d="M13.8889 6H12.1539C10.9643 6 10 6.8954 10 8C10 9.1046 10.9643 10 12.1539 10H13.8889C13.9445 10 13.9722 10 13.9957 9.9986C14.3552 9.97667 14.6415 9.7108 14.6651 9.37693C14.6667 9.35513 14.6667 9.32933 14.6667 9.2778V6.7222C14.6667 6.67067 14.6667 6.64484 14.6651 6.62307C14.6415 6.28923 14.3552 6.02331 13.9957 6.00143C13.9722 6 13.9445 6 13.8889 6Z" stroke="white" stroke-opacity="0.7" stroke-width="1.2"/>
<path d="M13.9768 5.99984C13.925 4.75164 13.7579 3.98634 13.2191 3.44755C12.4381 2.6665 11.181 2.6665 8.66683 2.6665H6.66683C4.15267 2.6665 2.8956 2.6665 2.11454 3.44755C1.3335 4.2286 1.3335 5.48568 1.3335 7.99984C1.3335 10.514 1.3335 11.7711 2.11454 12.5521C2.8956 13.3332 4.15267 13.3332 6.66683 13.3332H8.66683C11.181 13.3332 12.4381 13.3332 13.2191 12.5521C13.7579 12.0134 13.925 11.248 13.9768 9.99984" stroke="white" stroke-opacity="0.7" stroke-width="1.2"/>
<path d="M11.9941 8H12.0001" stroke="white" stroke-opacity="0.7" stroke-width="1.2" stroke-linecap="round" stroke-linejoin="round"/>
</svg>
